<svg width="898" height="785" viewBox="0 0 898 785" fill="none" xmlns="http://www.w3.org/2000/svg">
<g filter="url(#filter0_i_32_2)">
<path d="M227.552 129.146C354.052 -2.77672 451.385 -5.32628 485.63 2.54595C518.452 10.0915 563.344 29.4532 591.219 63.0987C605.171 79.9403 614.867 100.373 616.625 124.677C618.382 148.976 612.2 177.067 594.536 209.224C559.243 273.475 490.865 336.928 419.833 390.112C348.799 443.298 275.002 486.292 228.709 509.63L141.184 559.003C141.155 559.096 141.128 559.198 141.092 559.301C140.955 559.683 140.742 560.229 140.478 560.905C138.053 567.135 132.615 586.204 133.954 609.023C135.29 631.802 143.372 658.265 167.899 679.477C206.355 703.175 264.227 704.175 309.251 697.359C361.631 685.097 414.999 652.353 482.629 607.267C493.248 600.187 503.028 594.121 512.389 588.314C530.006 577.386 546.15 567.372 563.773 553.175L563.794 553.158C563.795 553.157 563.805 553.15 563.81 553.146C563.822 553.137 563.839 553.125 563.862 553.107C563.908 553.073 563.975 553.019 564.067 552.949C564.251 552.809 564.529 552.598 564.902 552.313C565.649 551.741 566.781 550.873 568.32 549.69C571.4 547.324 576.112 543.692 582.637 538.641C593.899 529.921 610.563 516.964 633.565 498.956C633.58 498.98 633.595 499.003 633.609 499.026L685.397 466.641C685.691 466.727 685.968 466.842 686.225 466.994L655.835 519.964C635.772 543.9 607.405 573.713 574.04 604.251C440.809 726.191 343.653 760.102 264.549 778.183C242.075 783.32 178.33 795.006 117.302 766.839C92.1313 755.222 26.6126 719.186 3.97148 610.509C-5.09757 566.975 2.46824 514.162 15.5467 465.913C28.6312 417.642 47.2686 373.814 60.4559 348.193C60.8841 347.361 61.3812 346.372 61.9598 345.221C72.3277 324.6 107.85 253.977 227.552 129.146ZM87.784 583.954L88.2439 584.842L139.38 558.392C139.36 558.453 139.334 558.542 139.293 558.658C139.337 558.535 139.373 558.446 139.393 558.385L143.586 556.217L143.126 555.329L87.784 583.954ZM140.312 559.327C140.406 559.328 140.488 559.32 140.553 559.305L140.508 559.149L140.312 559.327ZM140.545 559.116L140.596 559.293C140.642 559.279 140.683 559.262 140.719 559.245L140.59 559.077L140.545 559.116ZM501.844 101.565C493.684 99.1544 484.752 99.4282 474.005 102.599C452.431 108.963 423.798 126.907 379.934 157.659C237.585 257.458 163.55 435.291 142.623 554.701C356.171 363.857 342.389 380.225 403.537 320.875C441.86 283.68 480.158 240.307 504.92 202.32C517.305 183.32 526.266 165.723 530.176 150.957C534.091 136.168 532.881 124.48 525.347 116.946C517.516 109.115 510.014 103.978 501.844 101.565ZM303.597 414.428C308.571 410.055 313.161 406.021 317.428 402.273C321.875 398.365 325.97 394.765 329.779 391.414C322.316 397.979 313.755 405.496 303.597 414.428ZM181.056 182.422C111.635 261.112 81.736 311.706 68.9529 335.804C81.5203 312.115 110.618 262.841 177.493 186.477L181.056 182.422ZM202.421 158.7C196.959 164.646 191.706 170.453 186.652 176.117C190.444 171.867 194.348 167.538 198.368 163.129L202.421 158.7ZM223.387 136.273C221.654 138.096 219.94 139.909 218.243 141.708C218.592 141.338 218.94 140.967 219.29 140.596L223.387 136.273Z" fill="url(#paint0_linear_32_2)"/>
<circle cx="844.873" cy="300.994" r="52.9089" fill="#B7E4C7"/>
<circle cx="776.811" cy="379.876" r="40.1898" fill="#74C69D"/>
<path d="M751.518 437.966C751.518 454.829 737.848 468.499 720.984 468.499C704.121 468.499 690.451 454.829 690.451 437.966C690.451 421.102 704.121 407.432 720.984 407.432C737.848 407.432 751.518 421.102 751.518 437.966Z" fill="#52B788"/>
<path d="M653.353 463.532L653.34 463.7L690.919 466.629L687.971 504.413L688.208 504.431L678.646 627.067L640.689 624.108L650.248 501.52L650.187 501.516L650.19 501.472L530.54 492.143L533.5 454.186L653.353 463.532Z" fill="#52B788"/>
</g>
<defs>
<filter id="filter0_i_32_2" x="0" y="0" width="897.782" height="789" filterUnits="userSpaceOnUse" color-interpolation-filters="sRGB">
<feFlood flood-opacity="0" result="BackgroundImageFix"/>
<feBlend mode="normal" in="SourceGraphic" in2="BackgroundImageFix" result="shape"/>
<feColorMatrix in="SourceAlpha" type="matrix" values="0 0 0 0 0 0 0 0 0 0 0 0 0 0 0 0 0 0 127 0" result="hardAlpha"/>
<feOffset dy="4"/>
<feGaussianBlur stdDeviation="2"/>
<feComposite in2="hardAlpha" operator="arithmetic" k2="-1" k3="1"/>
<feColorMatrix type="matrix" values="0 0 0 0 0 0 0 0 0 0 0 0 0 0 0 0 0 0 0.25 0"/>
<feBlend mode="normal" in2="shape" result="effect1_innerShadow_32_2"/>
</filter>
<linearGradient id="paint0_linear_32_2" x1="443.692" y1="393.12" x2="677.464" y2="484.721" gradientUnits="userSpaceOnUse">
<stop stop-color="#1B4332"/>
<stop offset="1" stop-color="#52B788"/>
</linearGradient>
</defs>
</svg>
